<mxfile host="app.diagrams.net" modified="2021-03-01T02:43:50.643Z" agent="5.0 (Windows)" etag="tG-uAMwJwbfVhwOIcqcN" version="14.4.3" type="github">
  <diagram id="iBHwi5FREeYslakFrdKF" name="Page-1">
    <mxGraphModel dx="2333" dy="781" grid="1" gridSize="10" guides="1" tooltips="1" connect="1" arrows="1" fold="1" page="1" pageScale="1" pageWidth="850" pageHeight="1100" math="0" shadow="0">
      <root>
        <mxCell id="0" />
        <mxCell id="1" parent="0" />
        <mxCell id="aoYFT5eK1Uy6SU21uXXh-18" style="edgeStyle=orthogonalEdgeStyle;rounded=0;orthogonalLoop=1;jettySize=auto;html=1;entryX=0.5;entryY=0;entryDx=0;entryDy=0;" edge="1" parent="1" source="aoYFT5eK1Uy6SU21uXXh-2" target="aoYFT5eK1Uy6SU21uXXh-4">
          <mxGeometry relative="1" as="geometry">
            <Array as="points">
              <mxPoint x="30" y="210" />
              <mxPoint x="-265" y="210" />
            </Array>
          </mxGeometry>
        </mxCell>
        <mxCell id="aoYFT5eK1Uy6SU21uXXh-19" style="edgeStyle=orthogonalEdgeStyle;rounded=0;orthogonalLoop=1;jettySize=auto;html=1;entryX=0.5;entryY=0;entryDx=0;entryDy=0;" edge="1" parent="1" source="aoYFT5eK1Uy6SU21uXXh-2" target="aoYFT5eK1Uy6SU21uXXh-20">
          <mxGeometry relative="1" as="geometry">
            <mxPoint x="390" y="260" as="targetPoint" />
            <Array as="points">
              <mxPoint x="30" y="210" />
              <mxPoint x="390" y="210" />
            </Array>
          </mxGeometry>
        </mxCell>
        <mxCell id="aoYFT5eK1Uy6SU21uXXh-2" value="&lt;h2&gt;ArtNepal&lt;/h2&gt;" style="ellipse;whiteSpace=wrap;html=1;" vertex="1" parent="1">
          <mxGeometry x="-50" y="70" width="160" height="70" as="geometry" />
        </mxCell>
        <mxCell id="aoYFT5eK1Uy6SU21uXXh-10" value="" style="edgeStyle=orthogonalEdgeStyle;rounded=0;orthogonalLoop=1;jettySize=auto;html=1;" edge="1" parent="1" source="aoYFT5eK1Uy6SU21uXXh-4" target="aoYFT5eK1Uy6SU21uXXh-9">
          <mxGeometry relative="1" as="geometry">
            <Array as="points">
              <mxPoint x="-265" y="400" />
              <mxPoint x="-350" y="400" />
            </Array>
          </mxGeometry>
        </mxCell>
        <mxCell id="aoYFT5eK1Uy6SU21uXXh-4" value="&lt;h2&gt;MVC&lt;/h2&gt;" style="rounded=0;whiteSpace=wrap;html=1;" vertex="1" parent="1">
          <mxGeometry x="-325" y="295" width="120" height="60" as="geometry" />
        </mxCell>
        <mxCell id="aoYFT5eK1Uy6SU21uXXh-8" value="" style="edgeStyle=orthogonalEdgeStyle;rounded=0;orthogonalLoop=1;jettySize=auto;html=1;" edge="1" parent="1" source="aoYFT5eK1Uy6SU21uXXh-5" target="aoYFT5eK1Uy6SU21uXXh-4">
          <mxGeometry relative="1" as="geometry" />
        </mxCell>
        <mxCell id="aoYFT5eK1Uy6SU21uXXh-5" value="&lt;h2&gt;Architecture&lt;/h2&gt;" style="text;html=1;align=center;verticalAlign=middle;resizable=0;points=[];autosize=1;" vertex="1" parent="1">
          <mxGeometry x="-510" y="300" width="120" height="50" as="geometry" />
        </mxCell>
        <mxCell id="aoYFT5eK1Uy6SU21uXXh-9" value="&lt;h2&gt;DOTNET&lt;br&gt;&lt;/h2&gt;" style="rounded=0;whiteSpace=wrap;html=1;" vertex="1" parent="1">
          <mxGeometry x="-440" y="435" width="120" height="60" as="geometry" />
        </mxCell>
        <mxCell id="aoYFT5eK1Uy6SU21uXXh-11" value="" style="edgeStyle=orthogonalEdgeStyle;rounded=0;orthogonalLoop=1;jettySize=auto;html=1;entryX=0;entryY=0.5;entryDx=0;entryDy=0;" edge="1" parent="1" source="aoYFT5eK1Uy6SU21uXXh-12" target="aoYFT5eK1Uy6SU21uXXh-9">
          <mxGeometry relative="1" as="geometry">
            <mxPoint x="-340" y="460" as="targetPoint" />
          </mxGeometry>
        </mxCell>
        <mxCell id="aoYFT5eK1Uy6SU21uXXh-12" value="&lt;h4&gt;Framework&lt;/h4&gt;" style="text;html=1;align=center;verticalAlign=middle;resizable=0;points=[];autosize=1;" vertex="1" parent="1">
          <mxGeometry x="-610" y="440" width="80" height="50" as="geometry" />
        </mxCell>
        <mxCell id="aoYFT5eK1Uy6SU21uXXh-14" value="" style="edgeStyle=orthogonalEdgeStyle;rounded=0;orthogonalLoop=1;jettySize=auto;html=1;exitX=0.5;exitY=1;exitDx=0;exitDy=0;entryX=0.408;entryY=-0.033;entryDx=0;entryDy=0;entryPerimeter=0;" edge="1" parent="1" source="aoYFT5eK1Uy6SU21uXXh-4" target="aoYFT5eK1Uy6SU21uXXh-15">
          <mxGeometry relative="1" as="geometry">
            <mxPoint x="-45" y="425" as="sourcePoint" />
            <mxPoint x="-130" y="430" as="targetPoint" />
            <Array as="points">
              <mxPoint x="-265" y="400" />
              <mxPoint x="-130" y="400" />
            </Array>
          </mxGeometry>
        </mxCell>
        <mxCell id="aoYFT5eK1Uy6SU21uXXh-15" value="&lt;h2&gt;C#&lt;br&gt;&lt;/h2&gt;" style="rounded=0;whiteSpace=wrap;html=1;" vertex="1" parent="1">
          <mxGeometry x="-180" y="440" width="120" height="60" as="geometry" />
        </mxCell>
        <mxCell id="aoYFT5eK1Uy6SU21uXXh-17" value="" style="edgeStyle=orthogonalEdgeStyle;rounded=0;orthogonalLoop=1;jettySize=auto;html=1;" edge="1" parent="1" source="aoYFT5eK1Uy6SU21uXXh-16" target="aoYFT5eK1Uy6SU21uXXh-15">
          <mxGeometry relative="1" as="geometry">
            <Array as="points">
              <mxPoint y="470" />
              <mxPoint y="470" />
            </Array>
          </mxGeometry>
        </mxCell>
        <mxCell id="aoYFT5eK1Uy6SU21uXXh-16" value="&lt;h4&gt;Language&lt;/h4&gt;" style="text;html=1;align=center;verticalAlign=middle;resizable=0;points=[];autosize=1;" vertex="1" parent="1">
          <mxGeometry x="-30" y="445" width="70" height="50" as="geometry" />
        </mxCell>
        <mxCell id="aoYFT5eK1Uy6SU21uXXh-20" value="&lt;h2&gt;MS SQL&lt;/h2&gt;" style="rounded=0;whiteSpace=wrap;html=1;" vertex="1" parent="1">
          <mxGeometry x="330" y="280" width="120" height="60" as="geometry" />
        </mxCell>
        <mxCell id="aoYFT5eK1Uy6SU21uXXh-22" style="edgeStyle=orthogonalEdgeStyle;rounded=0;orthogonalLoop=1;jettySize=auto;html=1;entryX=0;entryY=0.5;entryDx=0;entryDy=0;" edge="1" parent="1" source="aoYFT5eK1Uy6SU21uXXh-21" target="aoYFT5eK1Uy6SU21uXXh-20">
          <mxGeometry relative="1" as="geometry">
            <Array as="points">
              <mxPoint x="260" y="310" />
              <mxPoint x="260" y="310" />
            </Array>
          </mxGeometry>
        </mxCell>
        <mxCell id="aoYFT5eK1Uy6SU21uXXh-21" value="&lt;h4&gt;Database&lt;/h4&gt;" style="text;html=1;align=center;verticalAlign=middle;resizable=0;points=[];autosize=1;" vertex="1" parent="1">
          <mxGeometry x="170" y="285" width="70" height="50" as="geometry" />
        </mxCell>
      </root>
    </mxGraphModel>
  </diagram>
</mxfile>
